<?xml version="1.0" encoding="UTF-8"?>
<svg id="_图层_1" data-name="图层 1" xmlns="http://www.w3.org/2000/svg" viewBox="0 0 1000 1000">
  <defs>
    <style>
      .cls-1 {
        fill: #fff;
      }

      .cls-2 {
        fill: #020d35;
      }
    </style>
  </defs>
  <path class="cls-1" d="m0,0C333.33,0,666.67,0,1000,0c0,333.33,0,666.67,0,1000-333.33,0-666.67,0-1000,0C0,666.67,0,333.33,0,0Zm627.5,595.03c-79.23-109.11-170.67-207.3-263.62-304.68-41.93-43.93-82.89-88.82-130.58-126.66-11.32-8.98-23.61-16.45-35.8-24.16-8.92-5.64-24.43-18.64-35.38-18.86-11.53-.23-12.02,19.49-13.84,27.68-3,13.42-4.2,26.39-4.4,40.14-1.77,119.38,77.6,220.79,151.65,307.08,39.4,45.92,85,86.14,134.1,121.2,23.6,16.85,47.74,31.76,73.34,45.48,13.26,7.1,26.79,13.52,40.68,19.27,11.38,4.71,24.09,7.6,35.16,12.64,10.14,4.62,11.96,17.78,18.29,26.81,7.31,10.44,15.55,18.64,25.82,26.1,23.51,17.09,50.53,27.13,79,32.62,29.71,5.73,61.78,5.5,91.79,1.47,9.75-1.31,76.88-7.5,75.09-17.81-19.07-6.62-37.25-13-47.81-31.4-10.75-18.72-14.68-41.24-24.03-60.76-9.1-19-20.79-36.13-41.42-43.68-18.53-6.78-39.59-7.43-59.05-7.43,9.96-45.17-46.84-62.25-68.98-25.06Z"/>
  <path class="cls-2" d="m627.5,595.03c22.14-37.19,78.95-20.11,68.98,25.06,19.46,0,40.53.65,59.05,7.43,20.63,7.55,32.32,24.68,41.42,43.68,9.35,19.52,13.29,42.04,24.03,60.76,10.56,18.4,28.73,24.78,47.81,31.4,1.79,10.31-65.34,16.5-75.09,17.81-30.01,4.02-62.08,4.26-91.79-1.47-28.47-5.49-55.49-15.54-79-32.62-10.27-7.46-18.51-15.67-25.82-26.1-6.33-9.04-8.15-22.19-18.29-26.81-11.07-5.04-23.78-7.93-35.16-12.64-13.9-5.75-27.42-12.17-40.68-19.27-25.6-13.71-49.73-28.62-73.34-45.48-49.1-35.06-94.7-75.28-134.1-121.2-74.04-86.29-153.42-187.71-151.65-307.08.2-13.75,1.4-26.72,4.4-40.14,1.83-8.19,2.32-27.9,13.84-27.68,10.95.22,26.46,13.22,35.38,18.86,12.19,7.71,24.48,15.18,35.8,24.16,47.69,37.84,88.65,82.73,130.58,126.66,92.95,97.38,184.4,195.57,263.62,304.68Zm208.29,172.59c-10.02-5.84-23.04-5.86-33.62-10.88-9.55-4.53-16.58-12.05-22.33-20.75-13.29-20.13-19.99-47.06-39.55-62.25-20.11-15.62-45.58-18.56-70.19-18.73-7.08-.05-14.16-.02-21.24,0-3.6,0-15.45,2.01-18.3.02-9.6-6.69,18.51-6.05,21.85-6.05-15.21-4.64-23.77-15.33-28.05-31.2-22.11,15.45-44.39,35.55-34.04,65.82,9.24,27.03,29.38,49.95,54.22,63.66,60.05,33.13,125.84,28.71,191.25,20.36Zm-8.7-12.02c-31.18-26.83-27.98-75.02-55.58-105.02-13.24-14.39-32.88-20.95-51.94-22.54-8.25-.69-19.12-2.35-25.84,2.86-8.44,6.56-10.72,13.99-22.16,17.33,35.9,2.69,72.4,4.08,94.98,36.47,17.32,24.84,25.38,65.28,60.54,70.9Zm-170.24-139.15c-11.74,1.63-3.08-12.69,2.12-15.68,11.43-6.55,10.55,6.39,18.28,11.02,10.18,6.11,9.91-6.67,6.29-13.42-4.94-9.18-15.55-13.88-25.66-12.19-20.52,3.41-28.24,29.57-10.47,41.88,5.95,4.12,22.34,8.39,26.26-.58,3.88-8.89-8.96-17.44-16.52-15.78-.1,1.58-.2,3.2-.3,4.76Z"/>
  <path class="cls-1" d="m835.79,767.62c-65.41,8.36-131.2,12.78-191.25-20.36-24.84-13.71-44.98-36.63-54.22-63.66-10.35-30.27,11.93-50.37,34.04-65.82,4.28,15.87,12.83,26.56,28.05,31.2-3.34,0-31.45-.64-21.85,6.05,2.85,1.98,14.7-.02,18.3-.02,7.08,0,14.16-.04,21.24,0,24.62.17,50.08,3.11,70.19,18.73,19.56,15.19,26.26,42.12,39.55,62.25,5.75,8.7,12.78,16.22,22.33,20.75,10.58,5.01,23.6,5.04,33.62,10.88Z"/>
  <path class="cls-1" d="m827.08,755.6c-35.16-5.62-43.23-46.06-60.54-70.9-22.58-32.39-59.08-33.78-94.98-36.47,11.44-3.34,13.72-10.77,22.16-17.33,6.71-5.22,17.59-3.55,25.84-2.86,19.07,1.59,38.7,8.15,51.94,22.54,27.6,30,24.4,78.19,55.58,105.02Z"/>
  <path class="cls-1" d="m656.85,616.45c.1-1.56.2-3.18.3-4.76,7.56-1.65,20.4,6.9,16.52,15.78-3.92,8.97-20.31,4.7-26.26.58-17.76-12.3-10.04-38.46,10.47-41.88,10.11-1.68,20.72,3.02,25.66,12.19,3.63,6.74,3.9,19.52-6.29,13.42-7.72-4.63-6.85-17.57-18.28-11.02-5.21,2.98-13.87,17.31-2.12,15.68Z"/>
</svg>